# AST/ASF file generated using VICON BodyLanguage
# -----------------------------------------------
:version 1.10
:name VICON
:units
  mass 1.0
  length 0.45
  angle deg
:documentation
   .ast/.asf automatically generated from VICON data using
   VICON BodyBuilder and BodyLanguage model FoxedUp or BRILLIANT.MOD
:root
   order TX TY TZ RX RY RZ
   axis XYZ
   position 0 0 0  
   orientation 0 0 0 
:bonedata
  begin
     id 1 
     name lhipjoint
     direction 0.611804 -0.747784 0.257906 
     length 2.29243 
     axis 0 0 0  XYZ
  end
  begin
     id 2 
     name lfemur
     direction 0.34202 -0.939693 0  
     length 7.31159  
     axis 0 0 20  XYZ
    dof rx ry rz
    limits (-160.0 20.0)
           (-70.0 70.0)
           (-60.0 70.0)
  end
  begin
     id 3 
     name ltibia
     direction 0.34202 -0.939693 0   
     length 7.33391   
     axis 0 0 20   XYZ
    dof rx
    limits (-10.0 170.0)
  end
  begin
     id 4 
     name lfoot
     direction 0.122263 -0.335914 0.933924   
     length 1.76083   
     axis -90 7.62852e-016 20   XYZ
    dof rx rz
    limits (-45.0 90.0)
           (-70.0 20.0)
  end
  begin
     id 5 
     name ltoes
     direction 1.53533e-011 -4.2177e-011 1   
     length 0.879206   
     axis -90 7.62852e-016 20   XYZ
    dof rx
    limits (-90.0 20.0)
  end
  begin
     id 6 
     name rhipjoint
     direction -0.646469 -0.721248 0.248754   
     length 2.37677  
     axis 0 0 0  XYZ 
  end
  begin
     id 7 
     name rfemur
     direction -0.34202 -0.939693 0   
     length 7.18623   
     axis 0 0 -20   XYZ
    dof rx ry rz
    limits (-160.0 20.0)
           (-70.0 70.0)
           (-70.0 60.0)
  end
  begin
     id 8 
     name rtibia
     direction -0.34202 -0.939693 0   
     length 7.36567   
     axis 0 0 -20   XYZ
    dof rx
    limits (-10.0 170.0)
 end
 begin
     id 9 
     name rfoot
     direction -0.126681 -0.348054 0.928876   
     length 1.71902  
     axis -90 -7.62852e-016 -20   XYZ
    dof rx rz
    limits (-45.0 90.0)
           (-20.0 70.0)
  end
  begin
     id 10 
     name rtoes
     direction -1.53551e-011 -4.21898e-011 1   
     length 0.857792   
     axis -90 -7.62852e-016 -20   XYZ
    dof rx
    limits (-90.0 20.0)
  end
  begin
     id 11 
     name lowerback
     direction 0.0106509 0.999778 0.0181844   
     length 2.07668   
     axis 0 0 0   XYZ
    dof rx ry rz
    limits (-20.0 45.0)
           (-30.0 30.0)
           (-30.0 30.0)
  end
  begin
     id 12 
     name upperback
     direction -0.00456018 0.999989 -0.000590935   
     length 2.08011   
     axis 0 0 0   XYZ
    dof rx ry rz
    limits (-20.0 45.0)
           (-30.0 30.0)
           (-30.0 30.0)
  end
  begin
     id 13 
     name thorax
     direction -0.00910382 0.999916 -0.00923765   
     length 2.07397   
     axis 0 0 0   XYZ
    dof rx ry rz
    limits (-20.0 45.0)
           (-30.0 30.0)
           (-30.0 30.0)
  end
  begin
     id 14 
     name lowerneck
     direction 0.00171967 0.99778 0.0665733   
     length 1.67556   
     axis 0 0 0   XYZ
    dof rx ry rz
    limits (-20.0 45.0)
           (-30.0 30.0)
           (-30.0 30.0)
  end
  begin
     id 15 
     name upperneck
     direction -0.0143166 0.991302 -0.130828   
     length 1.68462   
     axis 0 0 0   XYZ
    dof rx ry rz
    limits (-20.0 45.0)
           (-30.0 30.0)
           (-30.0 30.0)
  end
  begin
     id 16
     name head
     direction -0.00606378 0.998665 -0.0512995  
     length 1.69269  
     axis 0 0 0   XYZ
    dof rx ry rz
    limits (-20.0 45.0)
           (-30.0 30.0)
           (-30.0 30.0)
  end
  begin
     id 17 
     name lclavicle
     direction 0.9638 0.179341 0.197297  
     length 4.12888  
     axis 0 0 0   XYZ
    dof ry rz
    limits (-20.0 10.0)
           (0.0 20.0)
  end
  begin
     id 18 
     name lhumerus
     direction 1 -4.48972e-011 -2.47351e-027   
     length 5.01834   
     axis -180 -30 -90   XYZ
    dof rx ry rz
    limits (-60.0 90.0)
           (-90.0 90.0)
           (-90.0 90.0)
  end
  begin
     id 19
     name lradius
     direction 1 -4.48965e-011 1.51591e-026   
     length 3.4869   
     axis -180 -30 -90   XYZ
    dof rx
    limits (-10.0 170.0)
  end
  begin
     id 20
     name lwrist
     direction 1 -4.48957e-011 2.70032e-026   
     length 1.74345   
     axis -1.81515e-014 90 90   XYZ
    dof ry
    limits (-180.0 0.0)
 end
  begin
     id 21 
     name lhand
     direction 1 -4.48951e-011 5.40064e-026   
     length 0.76799   
     axis -3.44607e-014 90 90   XYZ
    dof rx rz
    limits (-90.0 90.0)
           (-45.0 45.0)
  end
  begin
     id 22 
     name lfingers
     direction 1 -4.48971e-011 1.08013e-025   
     length 0.619174   
     axis -6.89214e-014 90 90   XYZ
    dof rx
    limits (0.0 90.0)
  end
  begin
     id 23
     name lthumb
     direction 0.707107 -6.34931e-011 0.707107   
     length 0.889013   
     axis -90 45 2.85299e-015   XYZ
    dof rx rz
    limits (-45.0 45.0)
           (-45.0 45.0)
  end
  begin
     id 24 
     name rclavicle
     direction -0.961409 0.252588 0.109054   
     length 4.04305  
     axis 0 0 0   XYZ 
    dof ry rz
    limits (-10.0 20.0)
           (-20.0 0.0)
  end
  begin
     id 25 
     name rhumerus
     direction -1 -4.4897e-011 1.33872e-017  
     length 4.70164   
     axis -180 30 90   XYZ
    dof rx ry rz
    limits (-90.0 60.0)
           (-90.0 90.0)
           (-90.0 90.0)
  end
  begin
     id 26 
     name rradius
     direction -1 -4.48954e-011 1.83844e-026   
     length 3.49911   
     axis -180 30 90   XYZ
    dof rx
    limits (-10.0 170.0)
  end
  begin
     id 27 
     name rwrist
     direction -1 -4.49008e-011 2.70032e-026   
     length 1.74955   
     axis -1.81515e-014 -90 -90   XYZ
    dof ry
    limits (-180.0 0.0)
  end
  begin
     id 28
     name rhand
     direction -1 -4.48916e-011 5.40064e-026   
     length 0.739335   
     axis -3.44607e-014 -90 -90   XYZ
    dof rx rz
    limits (-90.0 90.0)
           (-45.0 45.0)
  end
  begin
     id 29
     name rfingers
     direction -1 -4.48987e-011 1.08013e-025   
     length 0.596071   
     axis -6.89214e-014 -90 -90   XYZ
    dof rx
    limits (0.0 90.0)
  end
  begin
     id 30
     name rthumb
     direction -0.707107 -6.34935e-011 0.707107   
     length 0.855843   
     axis -90 -45 -2.85299e-015   XYZ
    dof rx rz
    limits (-45.0 45.0)
           (-45.0 45.0)
  end
:hierarchy
  begin
    root lhipjoint rhipjoint lowerback
    lhipjoint lfemur
    lfemur ltibia
    ltibia lfoot
    lfoot ltoes
    rhipjoint rfemur
    rfemur rtibia
    rtibia rfoot
    rfoot rtoes
    lowerback upperback
    upperback thorax
    thorax lowerneck lclavicle rclavicle
    lowerneck upperneck
    upperneck head
    lclavicle lhumerus
    lhumerus lradius
    lradius lwrist
    lwrist lhand lthumb
    lhand lfingers
    rclavicle rhumerus
    rhumerus rradius
    rradius rwrist
    rwrist rhand rthumb
    rhand rfingers
  end

#!OML:ASF I:\salsa\salsa 7_09\Patient 1\Session 1\dancermale.ASF
:FULLY-SPECIFIED
:DEGREES
583
root -12.0385 16.7333 0.223593 483.994 83.9948 482.659
lowerback 0.0170414 -2.0921 -4.31134
upperback 3.29325 -2.4967 -3.60734
thorax 3.41492 -1.26301 -1.37991
lowerneck -7.57877 -4.76067 0.36564
upperneck 21.7448 -7.04828 3.76865
head 8.09671 -2.78834 0.56246
rclavicle -2.88238e-015 1.11319e-014
rhumerus -41.2654 39.3059 -128.121
rradius 91.744
rwrist 7.91803
rhand -8.74089 29.9165
rfingers 7.12502
rthumb 17.1958 0.657337
lclavicle -2.88238e-015 1.11319e-014
lhumerus -72.4621 -26.9882 103.278
lradius 101.805
lwrist 14.0385
lhand -21.6842 31.186
lfingers 7.12502
lthumb 4.71369 -298.886
rfemur 18.0788 -13.9184 17.5071
rtibia 18.7939
rfoot -24.0513 -9.13022
rtoes -9.03789
lfemur -24.6026 6.18576 -31.5642
ltibia 57.0909
lfoot -25.8309 18.1905
ltoes -18.3105
584
root -11.9737 16.7213 0.244916 485.983 83.9081 484.873
lowerback -0.38091 -1.42165 -4.58359
upperback 3.4131 -1.58439 -3.14715
thorax 3.7772 -0.833256 -0.738273
lowerneck -7.56785 -5.52637 -0.388863
upperneck 21.7414 -8.01525 3.90465
head 8.15013 -3.29105 0.63967
rclavicle -4.96962e-016 -1.07344e-014
rhumerus -41.1234 38.8233 -128.071
rradius 90.8909
rwrist 7.65331
rhand -8.32772 28.0985
rfingers 7.12502
rthumb 17.5935 -1.12543
lclavicle -4.96962e-016 -1.07344e-014
lhumerus -72.412 -28.3945 103.491
lradius 102.049
lwrist 14.455
lhand -21.5319 30.9519
lfingers 7.12502
lthumb 4.86077 -299.124
rfemur 18.3196 -14.115 17.4994
rtibia 19.341
rfoot -23.8496 -9.08606
rtoes -9.46771
lfemur -23.8227 5.81243 -32.0928
ltibia 57.7234
lfoot -25.9234 17.5476
ltoes -19.0367
585
root -11.8955 16.7088 0.261057 488.468 83.8423 487.505
lowerback -0.923478 -0.71073 -4.63032
upperback 3.53839 -0.610219 -2.77587
thorax 4.19808 -0.367232 -0.300496
lowerneck -7.56005 -6.30229 -0.931263
upperneck 21.7344 -9.02226 4.01085
head 8.2029 -3.7974 0.665682
rclavicle 7.50412e-015 -1.11319e-014
rhumerus -41.062 38.1035 -128.002
rradius 89.7539
rwrist 8.49428
rhand -9.14007 26.2378
rfingers 7.12502
rthumb 16.8116 -3.05441
lclavicle 7.50412e-015 -1.11319e-014
lhumerus -72.2033 -30.1786 103.724
lradius 102.367
lwrist 14.8328
lhand -21.3638 30.6905
lfingers 7.12502
lthumb 5.02313 -299.389
rfemur 18.3464 -14.5488 17.3734
rtibia 20.2684
rfoot -23.5725 -8.81216
rtoes -10.6332
lfemur -22.8434 5.22687 -32.4649
ltibia 57.7424
lfoot -25.7837 16.9195
ltoes -20.0419
586
root -11.8037 16.6942 0.2705 491.498 83.7866 490.578
lowerback -1.67094 0.00299493 -4.36918
upperback 3.67248 0.376444 -2.56107
thorax 4.7325 0.11606 -0.178864
lowerneck -7.64823 -7.06122 -1.30991
upperneck 21.8 -10.0445 4.15888
head 8.29959 -4.28841 0.669994
rclavicle 5.1684e-015 1.74931e-014
rhumerus -40.6946 37.0083 -127.629
rradius 88.0552
rwrist 9.30797
rhand -9.40005 26.0418
rfingers 7.12502
rthumb 16.5613 -3.27153
lclavicle 5.1684e-015 1.74931e-014
lhumerus -71.8599 -32.2368 103.867
lradius 102.812
lwrist 15.0931
lhand -20.7866 30.7184
lfingers 7.12502
lthumb 5.58039 -299.375
rfemur 18.1439 -15.2376 17.1178
rtibia 21.5731
rfoot -23.2651 -8.2493
rtoes -11.3604
lfemur -21.6816 4.32166 -32.6737
ltibia 56.9526
lfoot -25.7642 16.3838
ltoes -20.5813
587
root -11.6992 16.6753 0.272731 496.673 83.8119 495.576
lowerback -2.60704 0.68191 -3.65112
upperback 3.63933 1.29073 -2.43984
thorax 5.2138 0.583032 -0.389618
lowerneck -7.50761 -7.81321 -1.741
upperneck 21.9103 -11.0887 4.52114
head 8.39334 -4.77151 0.755678
rclavicle 1.92324e-014 -3.97569e-015
rhumerus -40.304 35.4905 -127.135
rradius 85.7808
rwrist 10.0604
rhand -9.49267 27.1519
rfingers 7.12502
rthumb 16.4721 -2.16881
lclavicle 1.92324e-014 -3.97569e-015
lhumerus -71.5644 -34.5116 104.146
lradius 103.245
lwrist 15.4221
lhand -20.14 31.1283
lfingers 7.12502
lthumb 6.20467 -298.983
rfemur 17.7514 -16.0662 17.1051
rtibia 22.8788
rfoot -22.6848 -7.6357
rtoes -11.5525
lfemur -20.4639 3.18889 -32.5162
ltibia 55.3778
lfoot -26.2191 16.4614
ltoes -21.0171
588
root -11.5838 16.6527 0.268157 503.937 83.8659 502.454
lowerback -3.65632 1.35445 -2.45911
upperback 3.40624 2.15377 -2.4677
thorax 5.59281 1.04928 -0.999683
lowerneck -7.14427 -8.55444 -2.16285
upperneck 22.093 -12.1668 5.11791
head 8.4978 -5.24371 0.919437
rclavicle 1.51076e-014 -3.18055e-015
rhumerus -40.1913 33.5117 -126.801
rradius 83.7006
rwrist 11.0297
rhand -8.98376 27.3666
rfingers 7.12502
rthumb 16.9621 -1.91274
lclavicle 1.51076e-014 -3.18055e-015
lhumerus -71.31 -37.0235 104.416
lradius 103.711
lwrist 16.2443
lhand -19.4911 31.5457
lfingers 7.12502
lthumb 6.83106 -298.585
rfemur 16.9516 -16.7941 17.4948
rtibia 24.4661
rfoot -22.0195 -7.11721
rtoes -11.0389
lfemur -19.2243 1.98062 -32.0567
ltibia 53.5965
lfoot -26.8693 17.0296
ltoes -22.6105
